<svg id="_60_mind_map" data-name="#60_mind_map" xmlns="http://www.w3.org/2000/svg" viewBox="0 0 400 300"><rect x="79.51" y="40.05" width="159.33" height="227.44" transform="translate(312.95 -5.4) rotate(90)" fill="#fff"/><path d="M272.9,233.94H45.45a.51.51,0,0,1-.5-.5V74.11a.5.5,0,0,1,.5-.5H272.9a.5.5,0,0,1,.5.5V233.44A.51.51,0,0,1,272.9,233.94ZM46,232.94H272.4V74.61H46Z" fill="#231f20"/><rect x="152.01" y="-46.78" width="14.32" height="227.44" transform="translate(92.23 226.12) rotate(-90)" fill="#fff"/><path d="M272.9,74.61H45.45a.51.51,0,0,1-.5-.5V59.78a.51.51,0,0,1,.5-.5H272.9a.51.51,0,0,1,.5.5V74.11A.51.51,0,0,1,272.9,74.61ZM46,73.61H272.4V60.28H46Z" fill="#231f20"/><path d="M130.77,125.72a.46.46,0,0,1-.23-.06l-29.79-15.58a.5.5,0,0,1-.21-.67.51.51,0,0,1,.68-.22L131,124.78a.49.49,0,0,1,.21.67A.5.5,0,0,1,130.77,125.72Z" fill="#231f20"/><path d="M97.21,205.14a.47.47,0,0,1-.39-.2.49.49,0,0,1,.09-.7l33.56-25.48a.5.5,0,1,1,.6.8L97.52,205A.51.51,0,0,1,97.21,205.14Z" fill="#231f20"/><path d="M226.92,195.58a.59.59,0,0,1-.22-.05l-33.38-16.4a.51.51,0,0,1-.23-.67.5.5,0,0,1,.67-.23l33.38,16.4a.5.5,0,0,1,.23.67A.51.51,0,0,1,226.92,195.58Z" fill="#231f20"/><path d="M179.41,125.7a.39.39,0,0,1-.33-.2c-.35-.5.17-.9,1.31-1.8a.5.5,0,0,1,.7.09l.06.08c5.19-3,20.81-12.91,31.56-19.87a.5.5,0,1,1,.55.84c-.09,0-8.37,5.41-16.59,10.62C183,124.14,180.18,125.7,179.41,125.7Z" fill="#231f20"/><path d="M85.05,140.71a.51.51,0,0,1-.5-.5V122.92a.51.51,0,0,1,.5-.5.5.5,0,0,1,.5.5v17.29A.5.5,0,0,1,85.05,140.71Z" fill="#231f20"/><rect x="66.23" y="81.03" width="33.78" height="50.01" transform="translate(189.15 22.92) rotate(90)" fill="#fff"/><path d="M108.12,123.42h-50a.5.5,0,0,1-.5-.5V89.15a.5.5,0,0,1,.5-.5h50a.5.5,0,0,1,.5.5v33.77A.5.5,0,0,1,108.12,123.42Zm-49.51-1h49V89.65h-49Z" fill="#231f20"/><rect x="64.5" y="184.14" width="28.23" height="37.2" transform="translate(281.36 124.12) rotate(90)" fill="#fff"/><path d="M97.21,217.35H60a.5.5,0,0,1-.5-.5V188.63a.5.5,0,0,1,.5-.5H97.21a.5.5,0,0,1,.5.5v28.22A.5.5,0,0,1,97.21,217.35Zm-36.69-1H96.71V189.13H60.52Z" fill="#231f20"/><rect x="155.12" y="192.15" width="20.61" height="27.16" transform="translate(371.15 40.31) rotate(90)" fill="#fff"/><path d="M179,216.53H151.84a.5.5,0,0,1-.5-.5V195.42a.5.5,0,0,1,.5-.5H179a.51.51,0,0,1,.5.5V216A.5.5,0,0,1,179,216.53Zm-26.66-1H178.5V195.92H152.34Z" fill="#231f20"/><rect x="214.52" y="84.78" width="39.5" height="50.69" transform="translate(344.4 -124.15) rotate(90)" fill="#fff"/><path d="M259.62,130.38H208.93a.5.5,0,0,1-.5-.5V90.37a.5.5,0,0,1,.5-.5h50.69a.5.5,0,0,1,.5.5v39.51A.5.5,0,0,1,259.62,130.38Zm-50.19-1h49.69V90.87H209.43Z" fill="#231f20"/><rect x="214.76" y="172.67" width="32.8" height="35.47" transform="translate(421.56 -40.75) rotate(90)" fill="#fff"/><path d="M248.89,207.3H213.42a.5.5,0,0,1-.5-.5V174a.5.5,0,0,1,.5-.5h35.47a.51.51,0,0,1,.5.5v32.8A.5.5,0,0,1,248.89,207.3Zm-35-1h34.47V174.5H213.92Z" fill="#231f20"/><rect x="77.44" y="137.51" width="16.98" height="22.37" transform="translate(234.62 62.77) rotate(90)" fill="#fff"/><path d="M97.11,157.68H74.74a.5.5,0,0,1-.5-.5v-17a.5.5,0,0,1,.5-.5H97.11a.5.5,0,0,1,.5.5v17A.5.5,0,0,1,97.11,157.68Zm-21.87-1H96.61v-16H75.24Z" fill="#231f20"/><line x1="164" y1="195.08" x2="164" y2="180.25" fill="#fff"/><path d="M164,195.58a.5.5,0,0,1-.5-.5V180.25a.5.5,0,0,1,.5-.5.51.51,0,0,1,.5.5v14.83A.51.51,0,0,1,164,195.58Z" fill="#231f20"/><rect x="127.6" y="118.97" width="62.29" height="69.6" transform="translate(312.51 -4.97) rotate(90)" fill="#000000"/><path d="M248.89,100.87H220.12a.5.5,0,0,1-.5-.5.51.51,0,0,1,.5-.5h28.77a.51.51,0,0,1,.5.5A.5.5,0,0,1,248.89,100.87Z" fill="#e6e7e8"/><path d="M248.89,109.24H220.12a.5.5,0,0,1-.5-.5.51.51,0,0,1,.5-.5h28.77a.51.51,0,0,1,.5.5A.5.5,0,0,1,248.89,109.24Z" fill="#e6e7e8"/><path d="M243,117.61h-22.9a.5.5,0,0,1,0-1H243a.5.5,0,0,1,0,1Z" fill="#e6e7e8"/><path d="M97.5,98.17H68.73a.51.51,0,0,1-.5-.5.5.5,0,0,1,.5-.5H97.5a.5.5,0,0,1,.5.5A.5.5,0,0,1,97.5,98.17Z" fill="#e6e7e8"/><path d="M97.5,106.54H68.73a.51.51,0,0,1-.5-.5.5.5,0,0,1,.5-.5H97.5a.5.5,0,0,1,.5.5A.5.5,0,0,1,97.5,106.54Z" fill="#e6e7e8"/><path d="M91.63,114.91H68.73a.51.51,0,0,1-.5-.5.5.5,0,0,1,.5-.5h22.9a.5.5,0,0,1,.5.5A.5.5,0,0,1,91.63,114.91Z" fill="#e6e7e8"/><path d="M91.63,146.47H80.18a.5.5,0,0,1-.5-.5.51.51,0,0,1,.5-.5H91.63a.5.5,0,0,1,.5.5A.5.5,0,0,1,91.63,146.47Z" fill="#e6e7e8"/><path d="M89.57,198H66.2a.51.51,0,0,1-.5-.5.5.5,0,0,1,.5-.5H89.57a.5.5,0,0,1,.5.5A.5.5,0,0,1,89.57,198Z" fill="#e6e7e8"/><path d="M81.69,205.14H66.2a.51.51,0,0,1-.5-.5.5.5,0,0,1,.5-.5H81.69a.5.5,0,0,1,.5.5A.51.51,0,0,1,81.69,205.14Z" fill="#e6e7e8"/><path d="M172.71,202.48H158.13a.5.5,0,0,1-.5-.5.5.5,0,0,1,.5-.5h14.58a.5.5,0,0,1,.5.5A.5.5,0,0,1,172.71,202.48Z" fill="#e6e7e8"/><path d="M172.71,209.26H158.13a.5.5,0,0,1,0-1h14.58a.5.5,0,1,1,0,1Z" fill="#e6e7e8"/><path d="M243,180.75h-22.9a.5.5,0,0,1-.5-.5.51.51,0,0,1,.5-.5H243a.5.5,0,0,1,.5.5A.5.5,0,0,1,243,180.75Z" fill="#e6e7e8"/><path d="M243,188.16h-22.9a.5.5,0,0,1-.5-.5.51.51,0,0,1,.5-.5H243a.5.5,0,0,1,.5.5A.5.5,0,0,1,243,188.16Z" fill="#e6e7e8"/><path d="M243,195.58h-22.9a.51.51,0,0,1-.5-.5.5.5,0,0,1,.5-.5H243a.5.5,0,0,1,.5.5A.5.5,0,0,1,243,195.58Z" fill="#e6e7e8"/><path d="M160.81,100.87H132.93a.5.5,0,0,1-.5-.5.51.51,0,0,1,.5-.5h27.88a.51.51,0,0,1,.5.5A.5.5,0,0,1,160.81,100.87Z" fill="#e6e7e8"/><path d="M162.21,106.54H134.34a.5.5,0,0,1-.5-.5.5.5,0,0,1,.5-.5h27.87a.5.5,0,0,1,.5.5A.5.5,0,0,1,162.21,106.54Z" fill="#e6e7e8"/><path d="M225.85,144.15H211.49a.5.5,0,0,1-.5-.5.5.5,0,0,1,.5-.5h14.36a.5.5,0,0,1,.5.5A.51.51,0,0,1,225.85,144.15Z" fill="#e6e7e8"/><path d="M225.85,150.5H211.49a.5.5,0,0,1,0-1h14.36a.5.5,0,1,1,0,1Z" fill="#e6e7e8"/><path d="M221.91,156.85H211.49a.5.5,0,0,1-.5-.5.5.5,0,0,1,.5-.5h10.42a.51.51,0,0,1,.5.5A.5.5,0,0,1,221.91,156.85Z" fill="#e6e7e8"/><path d="M108.12,168.3H91.63a.51.51,0,0,1-.5-.5.5.5,0,0,1,.5-.5h16.49a.5.5,0,0,1,.5.5A.5.5,0,0,1,108.12,168.3Z" fill="#e6e7e8"/><path d="M104.78,172.38H89.57a.51.51,0,0,1-.5-.5.5.5,0,0,1,.5-.5h15.21a.5.5,0,0,1,.5.5A.51.51,0,0,1,104.78,172.38Z" fill="#e6e7e8"/><path d="M339.86,99.08a5.1,5.1,0,0,0-3.16-2A2.4,2.4,0,0,0,334,99.13c-1.45-3.4-4.94-5.61-8.56-6.36s-7.38-.24-11,.51a75.3,75.3,0,0,1-10.91,1.92,21.18,21.18,0,0,0,5.65,14.92A41.61,41.61,0,0,0,315,115l4.3,3.18c4.4,3.26,10.62,6.49,16.34,4.82,5-1.47,7.26-9.44,7.41-13.94A14.72,14.72,0,0,0,339.86,99.08Z" fill="#fff"/><path d="M332.32,123.93c-4.94,0-9.84-2.76-13.36-5.36l-4.3-3.19a41.94,41.94,0,0,1-5.87-4.92A21.59,21.59,0,0,1,303,95.18a.5.5,0,0,1,.48-.48,52.37,52.37,0,0,0,8.34-1.37q1.25-.28,2.49-.54c3.39-.7,7.36-1.3,11.2-.51a12.47,12.47,0,0,1,8.37,5.57,2.54,2.54,0,0,1,.44-.49,3.21,3.21,0,0,1,2.42-.79,5.52,5.52,0,0,1,3.49,2.19,15.16,15.16,0,0,1,3.27,10.3c-.17,5.08-2.7,12.91-7.77,14.4A12.16,12.16,0,0,1,332.32,123.93ZM304,95.67a20.65,20.65,0,0,0,5.52,14.11,41.65,41.65,0,0,0,5.73,4.8l4.31,3.18c4.14,3.07,10.27,6.38,15.9,4.74,4.54-1.33,6.89-8.83,7.05-13.47a14.13,14.13,0,0,0-3-9.63h0a4.55,4.55,0,0,0-2.84-1.83,2.19,2.19,0,0,0-1.65.54,1.41,1.41,0,0,0-.51,1,.5.5,0,0,1-.4.49.51.51,0,0,1-.56-.29c-1.25-3-4.4-5.28-8.2-6.07s-7.51-.17-10.8.51L312,94.3A54.87,54.87,0,0,1,304,95.67Z" fill="#231f20"/><path d="M353.4,179.88l15-3.79c-.57-1.08-9.69-28.42-18-33.73-7.17-6-21.58-6.56-37.89-7.18a50.34,50.34,0,0,0-15.53,1.51c-19,5.26-32.39,32.25-32.39,32.25l18.74,3.7s-3,27.87-5.6,61.85c0,0,29.87,6.72,76.55,4.11C354.24,238.6,353,184.72,353.4,179.88Z" fill="#000000"/><polygon points="308.4 147.38 292.91 231.39 319.19 237.77 329.92 143.65 308.4 147.38" fill="#231f20"/><path d="M319.19,238.26h-.12l-26.28-6.38a.49.49,0,0,1-.37-.57l15.49-84a.49.49,0,0,1,.41-.4l21.51-3.73a.5.5,0,0,1,.43.13.49.49,0,0,1,.15.42l-10.73,94.11a.5.5,0,0,1-.49.44ZM293.49,231l25.27,6.13,10.58-92.9-20.51,3.56Z" fill="#231f20"/><polygon points="313.98 147.62 315.87 153.62 301.32 210.81 306.1 219.5 316.17 212.52 320.16 155.52 327.09 146.05 313.98 147.62" fill="#fff"/><path d="M309.85,131,307,143.21s2.49,8.2,10.74,7.58a16.5,16.5,0,0,0,12.22-7.14l3.55-22.42s-5.38-4.1-1.57-16.6a39.79,39.79,0,0,1-21.09-.48s-5.86,13.27-5.91,19.58S309.85,131,309.85,131Z" fill="#fff"/><path d="M316.81,151.32c-7.82,0-10.3-7.88-10.33-8a.62.62,0,0,1,0-.27l2.78-11.71c-1.33-.47-4.88-2.23-4.85-7.66.05-6.33,5.71-19.23,6-19.78a.5.5,0,0,1,.6-.27,39.73,39.73,0,0,0,20.8.49.49.49,0,0,1,.63.62c-3.65,12,1.34,16,1.39,16.06a.48.48,0,0,1,.19.47l-3.55,22.42a.45.45,0,0,1-.07.18,16.83,16.83,0,0,1-12.6,7.38Zm-9.33-8.13c.35,1,2.88,7.65,10.18,7.1a16.14,16.14,0,0,0,11.78-6.82l3.49-22c-1-1-4.76-5.38-1.76-16.09a41.59,41.59,0,0,1-20.08-.59c-1,2.26-5.65,13.46-5.69,19,0,5.8,4.36,6.78,4.55,6.82a.52.52,0,0,1,.32.22.49.49,0,0,1,.06.39Z" fill="#231f20"/><path d="M328.88,120.08a5.27,5.27,0,0,1,2.21-2.48,9.28,9.28,0,0,1,3-.95,3.85,3.85,0,0,1,1.72,0,3,3,0,0,1,1.06.6,4,4,0,0,1,1.59,2.32,4.81,4.81,0,0,1-.26,2.28,9.77,9.77,0,0,1-1,2.32,6.37,6.37,0,0,1-8.86,1.92" fill="#fff"/><path d="M331.83,127.6a6.92,6.92,0,0,1-3.76-1.12.5.5,0,1,1,.54-.84,5.88,5.88,0,0,0,8.17-1.77,9.39,9.39,0,0,0,1-2.2,4.37,4.37,0,0,0,.25-2,3.65,3.65,0,0,0-1.41-2,2.69,2.69,0,0,0-.89-.51,3.6,3.6,0,0,0-1.49,0,8.89,8.89,0,0,0-2.85.89,4.76,4.76,0,0,0-2,2.25.5.5,0,0,1-.66.26.49.49,0,0,1-.26-.65,5.74,5.74,0,0,1,2.42-2.73,10,10,0,0,1,3.17-1,4.28,4.28,0,0,1,1.95,0,3.51,3.51,0,0,1,1.23.69,4.45,4.45,0,0,1,1.77,2.61,5.2,5.2,0,0,1-.28,2.53,9.56,9.56,0,0,1-1.06,2.43,6.88,6.88,0,0,1-4.34,3A7.08,7.08,0,0,1,331.83,127.6Z" fill="#231f20"/><path d="M308.7,137.14a10.48,10.48,0,0,0,8.56-1.33c4-2.8,4.06-4.81,4.06-4.81s-6.15,2.18-11.18.29Z" fill="#231f20"/><path d="M311.6,138a10.78,10.78,0,0,1-3.06-.42.5.5,0,0,1-.33-.59l1.45-5.85a.45.45,0,0,1,.25-.32.49.49,0,0,1,.41,0c4.8,1.81,10.77-.26,10.83-.29a.53.53,0,0,1,.46.07.51.51,0,0,1,.21.41c0,.23-.14,2.34-4.28,5.21A10.3,10.3,0,0,1,311.6,138Zm-2.3-1.25A10,10,0,0,0,317,135.4a10.41,10.41,0,0,0,3.59-3.64c-1.85.51-6.17,1.42-10.07.18Z" fill="#231f20"/><path d="M318.59,113.41s-5.36,5.35-4.6,6.61,3.66,1.11,3.66,1.11" fill="#fff"/><path d="M317.29,121.64c-.9,0-3-.14-3.72-1.36-.85-1.39,2.56-5.12,4.67-7.23a.49.49,0,0,1,.7,0,.48.48,0,0,1,0,.7c-2.63,2.62-4.74,5.43-4.52,6,.5.82,2.53.89,3.2.86a.5.5,0,0,1,.06,1Z" fill="#231f20"/><ellipse cx="323.65" cy="113.96" rx="1.47" ry="1.04" transform="translate(174.36 422.91) rotate(-83.61)" fill="#231f20"/><ellipse cx="313.98" cy="112.09" rx="1.47" ry="1.04" transform="translate(85.87 355.23) rotate(-66.47)" fill="#231f20"/><path d="M322.63,127.88a.49.49,0,0,1-.34-.14c-3.2-3.07-11.86-5-12-5a.5.5,0,0,1-.38-.6.5.5,0,0,1,.59-.38c.37.08,9,2,12.43,5.23a.5.5,0,0,1,0,.71A.52.52,0,0,1,322.63,127.88Z" fill="#231f20"/><line x1="356.98" y1="197.15" x2="367.68" y2="205.37" fill="#fff"/><path d="M367.68,205.87a.48.48,0,0,1-.3-.11l-10.71-8.21a.5.5,0,0,1,.61-.79L368,205a.5.5,0,0,1-.31.9Z" fill="#231f20"/><path d="M326.26,145.73s-4.1-3.93-5.18-8.73-.67-5.86-1.42-6-2,.34-2.94,2-.69,7.41.84,9.73S326.26,145.73,326.26,145.73Z" fill="#fff"/><path d="M326.26,146.24h-.05c-.76-.07-7.46-.82-9.07-3.27s-1.9-8.43-.86-10.25,2.49-2.43,3.48-2.22c.77.17.86.8,1,2.07.12.9.31,2.26.77,4.33,1,4.59,5,8.45,5.05,8.49a.5.5,0,0,1,.11.57A.52.52,0,0,1,326.26,146.24Zm-6.87-14.79c-.56,0-1.48.43-2.24,1.76s-.64,7,.82,9.2c.94,1.42,4.6,2.27,7,2.65a19.53,19.53,0,0,1-4.35-7.95,44.4,44.4,0,0,1-.79-4.42,4.65,4.65,0,0,0-.24-1.22Z" fill="#231f20"/><path d="M265.69,169.44s-18.23,44.81-11.4,58.48,74,19.74,74,19.74,8.54,3.61,11.2,4.18S352.26,253,352.26,253s-3.8.76-2.47,1.9,8.73,1.14,9.49-1.52-1.33-13.29-3.6-15-28.1-8-30-8.16-44.43-14.94-44.43-14.94l5.51-41.64" fill="#fff"/><path d="M353.41,256.1a7,7,0,0,1-3.94-.84,1.06,1.06,0,0,1-.43-1.1,1.49,1.49,0,0,1,.73-.83c-3.17-.21-8.47-.6-10.34-1-2.57-.55-10.33-3.8-11.22-4.18-3.7-.33-67.54-6.36-74.36-20-2.9-5.78-1.85-17.47,3.1-34.72,3.66-12.79,8.23-24,8.27-24.17a.51.51,0,0,1,.65-.27.5.5,0,0,1,.28.65c-.18.45-18.07,44.75-11.41,58.06s73,19.41,73.64,19.48l.15,0c.09,0,8.53,3.6,11.11,4.15s12.55,1.12,12.65,1.13a.5.5,0,0,1,.47.46.51.51,0,0,1-.4.53,5.21,5.21,0,0,0-2.35.93l.11.1c.7.6,4.2.91,6.67.16.8-.24,1.8-.68,2-1.44.76-2.66-1.4-12.94-3.42-14.46s-27.45-7.84-29.75-8.07c-1.9-.19-40.18-13.45-44.54-15a.49.49,0,0,1-.33-.53l5.5-41.65a.52.52,0,0,1,.57-.43.51.51,0,0,1,.43.57l-5.46,41.23c17.08,5.92,42.59,14.65,43.93,14.78,1.52.15,27.75,6.39,30.25,8.26s4.57,12.79,3.78,15.54c-.26.94-1.19,1.67-2.68,2.12A13.18,13.18,0,0,1,353.41,256.1Z" fill="#231f20"/><path d="M342.77,182.54s-12.24-31.33-15.68-36.49-18.53-17.75-20.41-16.5-1.33,2.66-.54,3.6a51.89,51.89,0,0,0,5.16,4s-4.93-2.26-5.09.71,3.6,4.77,3.6,4.77-4.14-3.05-4.3.23a4.83,4.83,0,0,0,2.89,4.54s-4.41-3.75-4,.15c.7,6.41,13.6,14.08,13.6,14.08l5.47,53.29s2,30.92,21.68,30c25.32-1.2,32.66-37.72,20-68.6" fill="#fff"/><path d="M344.31,245.4c-19.17,0-21.3-30.16-21.32-30.47l-5.44-53c-1.77-1.08-12.95-8.13-13.63-14.32-.12-1.13.12-1.86.72-2.17a1.42,1.42,0,0,1,.87-.14,4.92,4.92,0,0,1-.5-2.46,1.94,1.94,0,0,1,1-1.83,1.67,1.67,0,0,1,.77-.17,4.44,4.44,0,0,1-1.06-3,2,2,0,0,1,.91-1.67,3.3,3.3,0,0,1,2-.3,22.57,22.57,0,0,1-2.89-2.37,2.67,2.67,0,0,1,.66-4.34c1.38-.92,6.31,2.69,10.21,5.88,4.07,3.34,9,8,10.89,10.76,3.43,5.15,15.22,35.31,15.72,36.59a.5.5,0,1,1-.93.36c-.12-.31-12.26-31.34-15.63-36.39C323,140.87,308.6,129.33,307,130a2,2,0,0,0-1,1.32,2.08,2.08,0,0,0,.59,1.54,49.7,49.7,0,0,0,5.06,3.89.51.51,0,0,1,.15.66.49.49,0,0,1-.64.21c-1.09-.5-3.11-1.1-3.95-.59a.93.93,0,0,0-.43.86c-.08,1.62,1.21,2.88,2.21,3.61a8.73,8.73,0,0,1,1.19.74.5.5,0,0,1-.52.85,10.21,10.21,0,0,1-1.22-.75,2.74,2.74,0,0,0-1.95-.42c-.25.12-.38.45-.41,1a4,4,0,0,0,1.12,3,10.51,10.51,0,0,1,1.6,1.12.5.5,0,0,1-.52.84,6,6,0,0,1-1.63-1.13c-.64-.36-1.22-.55-1.47-.41s-.27.54-.2,1.18c.67,6.09,13.24,13.62,13.37,13.7a.52.52,0,0,1,.24.38L324,214.85c0,.32,2.14,30.4,21.16,29.53,7.89-.38,14.46-4.34,19-11.46,8.63-13.54,8.86-36.23.57-56.45a.5.5,0,1,1,.92-.38c8.41,20.51,8.15,43.57-.64,57.37-4.72,7.41-11.56,11.53-19.8,11.92Z" fill="#231f20"/><path d="M342.13,181.34S352,208.17,354.54,217" fill="#fff"/><path d="M354.54,217.53a.49.49,0,0,1-.48-.36c-2.5-8.74-12.3-35.39-12.4-35.66a.5.5,0,0,1,.94-.34c.1.27,9.91,27,12.42,35.73a.5.5,0,0,1-.35.61A.3.3,0,0,1,354.54,217.53Z" fill="#231f20"/><path d="M288.34,155.52c0,.76-1.52,14.94-1.52,14.94" fill="#231f20"/><path d="M286.82,171h-.05a.5.5,0,0,1-.44-.55c.61-5.69,1.51-14.34,1.51-14.88a.51.51,0,0,1,.5-.5.5.5,0,0,1,.5.5c0,.76-1.37,13.53-1.52,15A.51.51,0,0,1,286.82,171Z" fill="#231f20"/><path d="M310.44,118.72a7.73,7.73,0,1,1,7.73-7.73A7.74,7.74,0,0,1,310.44,118.72Zm0-14.46a6.73,6.73,0,1,0,6.73,6.73A6.74,6.74,0,0,0,310.44,104.26Z" fill="#231f20"/><path d="M325.47,120.75A7.73,7.73,0,1,1,333.2,113,7.74,7.74,0,0,1,325.47,120.75Zm0-14.46A6.73,6.73,0,1,0,332.2,113,6.73,6.73,0,0,0,325.47,106.29Z" fill="#231f20"/><path d="M298.71,190a.51.51,0,0,1-.47-.32l-5.8-15.57a.53.53,0,0,1,.1-.51l8.75-9.49-7.18-6.82a.49.49,0,0,1,0-.67c3-3.72,7.91-9.85,8.3-10.69a.5.5,0,0,1,1,0c0,.27.14.71-8.22,11l7.21,6.83a.51.51,0,0,1,0,.7l-8.88,9.63,5.69,15.28a.49.49,0,0,1-.29.64A.51.51,0,0,1,298.71,190Z" fill="#231f20"/><path d="M335.81,161.84a.49.49,0,0,1-.38-.18.5.5,0,0,1,.05-.7l4.14-3.6-5.79-10.27a.5.5,0,0,1,.87-.49l6,10.63a.49.49,0,0,1-.11.62l-4.44,3.86A.48.48,0,0,1,335.81,161.84Z" fill="#231f20"/><path d="M317.65,165.88l.67,6.09s18-5.5,17.88-5.78S335,160,335,160Z" fill="#231f20"/><path d="M318.32,172.46a.49.49,0,0,1-.49-.44l-.68-6.09a.48.48,0,0,1,.34-.52l17.3-5.9a.53.53,0,0,1,.41,0,.52.52,0,0,1,.24.34c.42,2.2,1.13,5.82,1.23,6.13a.58.58,0,0,1,0,.39c-.12.25-.26.56-18.18,6A.39.39,0,0,1,318.32,172.46Zm-.14-6.24.57,5.1c6.26-1.92,15.11-4.69,16.88-5.39-.23-1-.71-3.47-1.06-5.29Z" fill="#231f20"/><circle cx="331.55" cy="163.73" r="5.71" fill="#fff"/><path d="M331.55,169.94a6.21,6.21,0,1,1,6.21-6.21A6.22,6.22,0,0,1,331.55,169.94Zm0-11.42a5.21,5.21,0,1,0,5.21,5.21A5.22,5.22,0,0,0,331.55,158.52Z" fill="#231f20"/><path d="M330.74,167.46h-.1a.49.49,0,0,1-.39-.58l.81-4.2a.5.5,0,0,1,.81-.29l2.22,1.87a.52.52,0,0,1,.06.71.5.5,0,0,1-.71,0l-1.56-1.32-.65,3.37A.5.5,0,0,1,330.74,167.46Z" fill="#231f20"/></svg>