<svg xmlns="http://www.w3.org/2000/svg" viewBox="0 0 400 300"><g id="_98_open_map" data-name="#98_open_map"><path d="M328.74,246.34H71.26a.5.5,0,0,1,0-1H328.74a.5.5,0,0,1,0,1Z" fill="#d1d3d4"/><path d="M190.32,207.73a1,1,0,0,1-1-1v-5.32a1.92,1.92,0,0,0-1.91-1.92H166.26a1.92,1.92,0,0,0-1.91,1.92v5.32a1,1,0,0,1-2,0v-5.32a3.92,3.92,0,0,1,3.91-3.92h21.15a3.92,3.92,0,0,1,3.91,3.92v5.32A1,1,0,0,1,190.32,207.73Z" fill="#d1d3d4"/><rect x="133.87" y="206.73" width="85.94" height="60.59" rx="4.85" fill="#fff"/><path d="M215,267.83H138.72a5.36,5.36,0,0,1-5.35-5.35v-50.9a5.36,5.36,0,0,1,5.35-5.35H215a5.36,5.36,0,0,1,5.35,5.35v50.9A5.36,5.36,0,0,1,215,267.83Zm-76.23-60.6a4.36,4.36,0,0,0-4.35,4.35v50.9a4.35,4.35,0,0,0,4.35,4.35H215a4.35,4.35,0,0,0,4.35-4.35v-50.9a4.36,4.36,0,0,0-4.35-4.35Z" fill="#d1d3d4"/><rect x="152.7" y="205.28" width="5.62" height="63.5" rx="1.95" fill="#fff"/><path d="M156.37,269.28h-1.72a2.45,2.45,0,0,1-2.45-2.45v-59.6a2.45,2.45,0,0,1,2.45-2.45h1.72a2.45,2.45,0,0,1,2.45,2.45v59.6A2.45,2.45,0,0,1,156.37,269.28Zm-1.72-63.5a1.45,1.45,0,0,0-1.45,1.45v59.6a1.45,1.45,0,0,0,1.45,1.45h1.72a1.45,1.45,0,0,0,1.45-1.45v-59.6a1.45,1.45,0,0,0-1.45-1.45Z" fill="#d1d3d4"/><rect x="196.42" y="205.28" width="5.62" height="63.5" rx="1.95" fill="#fff"/><path d="M200.09,269.28h-1.72a2.45,2.45,0,0,1-2.45-2.45v-59.6a2.45,2.45,0,0,1,2.45-2.45h1.72a2.45,2.45,0,0,1,2.45,2.45v59.6A2.45,2.45,0,0,1,200.09,269.28Zm-1.72-63.5a1.45,1.45,0,0,0-1.45,1.45v59.6a1.45,1.45,0,0,0,1.45,1.45h1.72a1.45,1.45,0,0,0,1.45-1.45v-59.6a1.45,1.45,0,0,0-1.45-1.45Z" fill="#d1d3d4"/><circle cx="173.01" cy="237.52" r="5.8" fill="#fff"/><path d="M173,243.83a6.31,6.31,0,1,1,6.31-6.31A6.31,6.31,0,0,1,173,243.83Zm0-11.61a5.31,5.31,0,1,0,5.31,5.3A5.31,5.31,0,0,0,173,232.22Z" fill="#d1d3d4"/><rect x="172.79" y="248.09" width="18.58" height="10" transform="matrix(0.93, -0.36, 0.36, 0.93, -78.09, 81.27)" fill="#fff"/><path d="M175.18,261.57a.51.51,0,0,1-.47-.32l-3.55-9.35a.46.46,0,0,1,0-.38.5.5,0,0,1,.28-.27l17.36-6.6a.5.5,0,0,1,.64.29l3.56,9.35a.5.5,0,0,1,0,.38.51.51,0,0,1-.28.26l-17.36,6.61ZM172.27,252l3.2,8.42,16.43-6.25-3.2-8.42Z" fill="#d1d3d4"/><polygon points="192.34 225.91 178.44 228.82 175.53 214.93 192.34 225.91" fill="#fff"/><path d="M178.44,229.32a.5.5,0,0,1-.49-.39L175,215a.51.51,0,0,1,.21-.52.5.5,0,0,1,.55,0l16.81,11a.5.5,0,0,1-.17.91l-13.9,2.91ZM176.27,216l2.56,12.22,12.23-2.56Z" fill="#d1d3d4"/><polygon points="300.23 265.02 295.89 268.76 292.4 266.2 290.84 253.59 300.06 251.58 300.23 265.02" fill="#fff"/><path d="M300.06,251.58l.17,13.44-4.34,3.74-3.49-2.56-1.56-12.61,9.22-2m0-1a.76.76,0,0,0-.21,0l-9.22,2a1,1,0,0,0-.78,1.1l1.56,12.61a1,1,0,0,0,.4.68l3.49,2.56a1,1,0,0,0,.59.2,1,1,0,0,0,.66-.25l4.33-3.73a1,1,0,0,0,.35-.77l-.17-13.44a1,1,0,0,0-1-1Z" fill="#231f20"/><path d="M301,264.22s-5.41,3.81-9.32.68c0,0-12.87-1.15-14.33,7.65h23.8Z" fill="#231f20"/><path d="M301.1,273.05H277.3a.46.46,0,0,1-.38-.18.46.46,0,0,1-.11-.4c1.52-9.15,14.73-8.07,14.86-8.06a.54.54,0,0,1,.27.11c3.57,2.85,8.67-.67,8.73-.71a.5.5,0,0,1,.78.4l.15,8.33a.48.48,0,0,1-.15.36A.47.47,0,0,1,301.1,273.05Zm-23.19-1h22.68l-.12-6.95c-1.68,1-5.76,2.78-9,.29C290.09,265.31,279.64,264.9,277.91,272.05Z" fill="#231f20"/><polygon points="255.77 265.02 251.97 268.76 248.48 266.2 246.92 253.59 257.18 251.58 255.77 265.02" fill="#fff"/><path d="M257.18,251.58,255.77,265l-3.8,3.74-3.49-2.56-1.56-12.61,10.26-2m0-1-.2,0-10.25,2a1,1,0,0,0-.8,1.1l1.55,12.61a1,1,0,0,0,.41.68l3.49,2.56a1,1,0,0,0,.59.2,1,1,0,0,0,.7-.29l3.8-3.73a1,1,0,0,0,.3-.61l1.4-13.44a1,1,0,0,0-.32-.84,1,1,0,0,0-.67-.27Zm0,2Z" fill="#231f20"/><polygon points="297.15 145.58 302.31 258.25 288.69 258.11 270.09 182.56 259.66 257.82 244.57 257.67 239.84 146.86 297.15 145.58" fill="#231f20"/><path d="M302.31,258.74h0l-13.62-.13a.51.51,0,0,1-.48-.38l-18-73-10.07,72.7a.51.51,0,0,1-.5.43h0l-15.1-.15a.5.5,0,0,1-.49-.48l-4.73-110.81a.47.47,0,0,1,.13-.36.48.48,0,0,1,.35-.16l57.32-1.28h0a.5.5,0,0,1,.49.48l5.17,112.66a.47.47,0,0,1-.14.37A.48.48,0,0,1,302.31,258.74Zm-13.23-1.13,12.71.13-5.12-111.65-56.32,1.25,4.7,109.84,14.18.14,10.37-74.83a.49.49,0,0,1,.47-.43.5.5,0,0,1,.51.38Z" fill="#231f20"/><circle cx="264.57" cy="41.96" r="14.52" fill="#fff"/><path d="M264.57,57h-.15a15.11,15.11,0,1,1,.15,0Zm0-29a14,14,0,0,0-.13,28h.14a14,14,0,0,0,.14-28Z" fill="#231f20"/><ellipse cx="264.32" cy="43.09" rx="9.22" ry="19.72" transform="translate(165.38 291.95) rotate(-77.58)" fill="#231f20"/><path d="M270.81,53.56a40.49,40.49,0,0,1-8.58-1c-11.07-2.44-18.83-8.52-17.66-13.84s10.77-7.58,21.84-5.15,18.83,8.53,17.65,13.85C283.21,51.31,277.9,53.56,270.81,53.56Zm-13-19.94c-6.58,0-11.55,2-12.29,5.33-1,4.7,6.54,10.38,16.89,12.66s19.62.31,20.65-4.39h0c1-4.69-6.54-10.37-16.89-12.65A38.91,38.91,0,0,0,257.84,33.62Z" fill="#231f20"/><path d="M249.7,42.38c.13-.37.28-.74.43-1.1,1.78-4.08,8.73-4.33,12.47-4.07a20.57,20.57,0,0,1,9.94,3c2.35,1.55,4.83,4.36,5.08,7.31s-.84,6.68-1.78,9.41a10.53,10.53,0,0,1-2.58,4.43,10.74,10.74,0,0,1-4.54,2.16c-3.52.95-7.31,1.4-10.79.29s-7.17-4.21-8.22-7.94A22.63,22.63,0,0,1,249.7,42.38Z" fill="#fff"/><path d="M262.36,65a15.27,15.27,0,0,1-4.58-.67c-4-1.28-7.56-4.69-8.57-8.3s-1.78-8.7,0-13.77h0c.13-.38.28-.76.44-1.13,2.07-4.77,10.46-4.56,13-4.38a20.81,20.81,0,0,1,10.2,3c2.27,1.5,5,4.41,5.31,7.69.2,2.33-.41,5.57-1.82,9.63a11.08,11.08,0,0,1-2.71,4.64A11.34,11.34,0,0,1,268.85,64,25,25,0,0,1,262.36,65Zm-12.17-22.4c-1.69,4.82-.93,9.81,0,13.15s4.17,6.41,7.89,7.59c2.9.92,6.34.82,10.49-.3a10.51,10.51,0,0,0,4.34-2,10,10,0,0,0,2.43-4.22c1.36-3.92,1.95-7,1.76-9.2-.23-2.73-2.61-5.44-4.85-6.92a19.72,19.72,0,0,0-9.7-2.88c-2.35-.17-10.15-.39-11.95,3.76-.15.35-.29.7-.42,1.06Z" fill="#231f20"/><path d="M294.35,102.44l8.85-10.28c-6.07-10.46-12.41-16.43-16.61-18.61-5.45-3.77-18-3-29.62-2.36a35.57,35.57,0,0,0-10.87,2c-13.13,4.91-23.9,25.5-23.9,25.5l12.68,6.11s-.27,40.42,2.27,49.23c0,0,36.27,5.78,61.84-3.91C299,150.16,294.34,105.89,294.35,102.44Z" fill="#ff1e56"/><path d="M256.6,65.83l.79,8.84s3.52,5,8.94,2.68a11.66,11.66,0,0,0,6.61-7.55l-2.65-15.88s-4.54-1.55-4.79-10.82a28.29,28.29,0,0,1-14.3,4.42s-1,10.25.43,14.5S256.6,65.83,256.6,65.83Z" fill="#fff"/><path d="M263.52,78.47c-4,0-6.52-3.46-6.55-3.5a.58.58,0,0,1-.09-.25l-.75-8.37c-1.14,0-3.82-.58-5-4.17-1.41-4.3-.5-14.29-.46-14.71a.53.53,0,0,1,.5-.47,28,28,0,0,0,14-4.32.51.51,0,0,1,.53,0,.53.53,0,0,1,.29.45c.23,8.73,4.4,10.33,4.44,10.34a.51.51,0,0,1,.34.4l2.65,15.89a.46.46,0,0,1,0,.2,12.09,12.09,0,0,1-6.91,7.91A7.77,7.77,0,0,1,263.52,78.47Zm-5.62-4c.54.7,3.64,4.33,8.22,2.4a11.23,11.23,0,0,0,6.29-7.1l-2.58-15.5c-1-.51-4.36-2.74-4.8-10.26a29.17,29.17,0,0,1-13.36,4c-.16,2-.73,10.25.45,13.85,1.23,3.78,4.29,3.48,4.42,3.46a.54.54,0,0,1,.39.11.6.6,0,0,1,.19.36Z" fill="#231f20"/><path d="M266.94,54.18a3.77,3.77,0,0,1,.93-2.17,6.74,6.74,0,0,1,1.81-1.32,2.77,2.77,0,0,1,1.16-.4,2.1,2.1,0,0,1,.85.16,2.91,2.91,0,0,1,1.59,1.2,3.48,3.48,0,0,1,.33,1.6,6.63,6.63,0,0,1-.15,1.78,4.53,4.53,0,0,1-5.53,3.29" fill="#fff"/><path d="M269.06,59a5,5,0,0,1-1.27-.16.51.51,0,0,1-.36-.63.52.52,0,0,1,.63-.37,4,4,0,0,0,3.05-.43A4.1,4.1,0,0,0,273,54.91a6.58,6.58,0,0,0,.14-1.65,3.21,3.21,0,0,0-.27-1.36,2.48,2.48,0,0,0-1.32-1,1.65,1.65,0,0,0-.65-.13,2.23,2.23,0,0,0-.93.35,6,6,0,0,0-1.67,1.2,3.19,3.19,0,0,0-.8,1.87.53.53,0,0,1-.56.47.51.51,0,0,1-.47-.55,4.24,4.24,0,0,1,1.06-2.48,6.94,6.94,0,0,1,1.95-1.42,3.07,3.07,0,0,1,1.37-.47,3,3,0,0,1,1.05.19,3.39,3.39,0,0,1,1.87,1.44,4.11,4.11,0,0,1,.4,1.84,7.36,7.36,0,0,1-.17,1.92,5,5,0,0,1-4.9,3.82Z" fill="#231f20"/><path d="M257.2,70.19a7.42,7.42,0,0,0,5.46-2.81c2.09-2.8,1.65-4.15,1.65-4.15s-3.64,2.84-7.46,2.7Z" fill="#231f20"/><path d="M257.2,70.69a.5.5,0,0,1-.5-.46L256.36,66a.52.52,0,0,1,.13-.38.47.47,0,0,1,.38-.16c3.58.13,7.1-2.57,7.14-2.6a.48.48,0,0,1,.45-.08.52.52,0,0,1,.33.32c0,.17.45,1.68-1.73,4.6a7.88,7.88,0,0,1-5.86,3Zm.19-4.26.26,3.23a6.9,6.9,0,0,0,4.61-2.58,8.12,8.12,0,0,0,1.51-2.87A13.33,13.33,0,0,1,257.39,66.43Z" fill="#231f20"/><path d="M257.81,51.88s-2.4,4.8-1.6,5.48,2.71-.07,2.71-.07" fill="#fff"/><path d="M257.2,58.15a2,2,0,0,1-1.31-.4c-.91-.78.3-3.74,1.48-6.09a.5.5,0,1,1,.89.44c-1.1,2.2-1.89,4.5-1.69,4.92.35.29,1.49.07,2.17-.2a.5.5,0,1,1,.37.93A5.76,5.76,0,0,1,257.2,58.15Z" fill="#231f20"/><path d="M258.69,60.55s3.44.65,3.93-2.66" fill="#fff"/><path d="M259.37,61.1a5.27,5.27,0,0,1-.77-.06.5.5,0,1,1,.19-1,3.42,3.42,0,0,0,2.36-.45,2.53,2.53,0,0,0,1-1.79.5.5,0,0,1,1,.15,3.47,3.47,0,0,1-1.4,2.46A4.06,4.06,0,0,1,259.37,61.1Z" fill="#231f20"/><ellipse cx="262.83" cy="51.12" rx="1.04" ry="0.74" transform="translate(188.8 308.44) rotate(-84.96)" fill="#231f20"/><ellipse cx="255.12" cy="52.15" rx="1.04" ry="0.74" transform="translate(180.74 301.7) rotate(-84.96)" fill="#231f20"/><polygon points="262.77 90.25 240.23 96.86 218.85 91.36 198.79 96.44 176.76 90.16 200.45 145.05 219.24 150.02 234.94 143.92 251.62 150.34 265.55 145.7 262.77 90.25" fill="#fff"/><path d="M176.76,90.16l22,6.28,20.06-5.08,21.38,5.5,22.54-6.61,2.78,55.45-13.93,4.64-16.68-6.42-15.7,6.1-18.79-5L176.76,90.16m0-1a1,1,0,0,0-.75.34,1,1,0,0,0-.17,1.06l23.69,54.89a1,1,0,0,0,.67.57L219,151a1.07,1.07,0,0,0,.25,0,.94.94,0,0,0,.37-.07L234.94,145l16.32,6.28a1.13,1.13,0,0,0,.36.06.86.86,0,0,0,.32-.05l13.93-4.64a1,1,0,0,0,.68-1L263.77,90.2a1,1,0,0,0-.42-.76,1.05,1.05,0,0,0-.58-.19,1.26,1.26,0,0,0-.28,0l-22.28,6.53L219.1,90.4a1.18,1.18,0,0,0-.25,0,.69.69,0,0,0-.25,0l-19.8,5L177,89.2a1.26,1.26,0,0,0-.27,0Z" fill="#231f20"/><path d="M251.48,150.19a.5.5,0,0,1-.49-.4L239.84,97.44a.5.5,0,0,1,.38-.6.52.52,0,0,1,.6.39L252,149.58a.5.5,0,0,1-.38.6Z" fill="#d1d3d4"/><path d="M234.74,143.8a.51.51,0,0,1-.48-.36L218.58,92.2a.51.51,0,0,1,.33-.63.5.5,0,0,1,.62.33l15.69,51.25a.51.51,0,0,1-.33.63Z" fill="#d1d3d4"/><path d="M219,149.94a.48.48,0,0,1-.46-.32l-20-52.36a.5.5,0,0,1,.94-.35l20,52.36a.5.5,0,0,1-.29.64A.57.57,0,0,1,219,149.94Z" fill="#d1d3d4"/><path d="M183.51,111.63a12.1,12.1,0,0,0,.87,3.11l1.92,5c.48,1.24,1.25,2.7,2.58,2.71a3.4,3.4,0,0,0,2.28-1.36c2-2,4-4.24,4.5-7,.08-.4,0-.94-.37-1a.78.78,0,0,0-.51.11,10.9,10.9,0,0,0-3.69,2.87,24.71,24.71,0,0,0,3.58-4.91c.22-.39.39-1,0-1.24a1,1,0,0,0-.87,0,8.38,8.38,0,0,0-2.82,1.76,7.39,7.39,0,0,0,2.55-3.12c.2-.46.29-1.13-.16-1.37s-.77.06-1.08.31a16.21,16.21,0,0,0-2.16,2,5.47,5.47,0,0,0,1-2.24.72.72,0,0,0,0-.54c-.23-.34-.76-.11-1.09.14l-4.6,3.59c.21-.16-.92-1.47-1.36-1.35C183.43,109.24,183.46,111.18,183.51,111.63Z" fill="#fff"/><path d="M188.9,123h0c-1.88,0-2.75-2.29-3-3l-1.92-5a11.81,11.81,0,0,1-.91-3.24h0c0-.29-.22-2.78.92-3.1.62-.17,1.34.55,1.7,1l4.09-3.19a1.72,1.72,0,0,1,1.22-.41.88.88,0,0,1,.6.39,1.15,1.15,0,0,1,.11.91.09.09,0,0,1,0,.05l.37-.29a1.48,1.48,0,0,1,1.62-.35c.72.37.71,1.28.39,2a7.18,7.18,0,0,1-.34.68,1.43,1.43,0,0,1,1.31.07c.51.38.56,1.08.11,1.89-.29.52-.59,1-.92,1.53l.38-.19a1.28,1.28,0,0,1,.84-.15c.61.14.91.78.75,1.61-.56,3-2.81,5.37-4.62,7.26A3.84,3.84,0,0,1,188.9,123ZM184,111.58a11.65,11.65,0,0,0,.85,3l1.92,5c.62,1.6,1.31,2.38,2.11,2.39a3.13,3.13,0,0,0,1.92-1.21c1.72-1.8,3.86-4,4.37-6.75a.85.85,0,0,0,0-.46l-.15.08a10.62,10.62,0,0,0-2.93,2.08c-.2.23-.41.46-.62.68a.5.5,0,0,1-.74-.66c.2-.24.41-.47.63-.7a24.28,24.28,0,0,0,2.89-4.13.92.92,0,0,0,.17-.6h0s-.08,0-.4.08a8,8,0,0,0-1.8,1,9.32,9.32,0,0,1-.9.74.5.5,0,0,1-.63-.78,8.85,8.85,0,0,1,.89-.73,6.86,6.86,0,0,0,1.54-2.22c.16-.35.15-.68.07-.72s-.22,0-.55.25a17.32,17.32,0,0,0-2.09,1.93.5.5,0,0,1-.77-.64,5,5,0,0,0,.91-2,.44.44,0,0,0,0-.1,1.08,1.08,0,0,0-.35.2l-4.6,3.58h0a.5.5,0,0,1-.7-.09.55.55,0,0,1-.1-.37,2.79,2.79,0,0,0-.76-.77,5.64,5.64,0,0,0-.17,2Zm1.12-1.56Zm-1-.47Z" fill="#231f20"/><path d="M301.82,89.27s28.06,40.79,12.81,44.79c-10.61,2.79-32.56-.29-41-3.72s-12-6.17-12-6.17-9,.13-8.15-2.11a3,3,0,0,1,3.21-1.9s-4.32,0-4-2.08,3.89-1.69,3.89-1.69-6.21-1.61-4.71-3,4.66-.69,4.66-.69-4.23-.38-4.24-2.18c0-3.07,13.27-.91,16,1.27s22.3,4.26,25.13,4.28l-7.85-18.46" fill="#fff"/><path d="M303.83,135.66c-10.91,0-24.13-2.32-30.35-4.86a60.83,60.83,0,0,1-12-6.13c-1.55,0-7.23,0-8.33-1.63a1.2,1.2,0,0,1-.12-1.16,3.38,3.38,0,0,1,1.19-1.57,3.37,3.37,0,0,1-1.61-.92,1.66,1.66,0,0,1-.36-1.39,2.42,2.42,0,0,1,1.86-1.88c-1.36-.51-2.7-1.2-2.9-2a1.05,1.05,0,0,1,.38-1,3.66,3.66,0,0,1,1.48-.76,2,2,0,0,1-1.23-1.73,1.61,1.61,0,0,1,1.06-1.48c3-1.48,13.21.32,15.78,2.36,2.33,1.85,19.24,3.89,24,4.14l-7.54-17.73a.49.49,0,0,1,.26-.65.5.5,0,0,1,.66.26L294,115.92a.5.5,0,0,1-.46.7h0c-2.25,0-22.45-2-25.44-4.39-2.28-1.81-12-3.54-14.72-2.24-.49.24-.49.48-.49.57,0,.82,1.62,1.34,2.91,1.57a9.34,9.34,0,0,1,.93.13.5.5,0,0,1,.39.57.49.49,0,0,1-.54.42c-.12,0-.47,0-.94-.13a4.8,4.8,0,0,0-3.34.69l-.07.08c.08.45,2.26,1.41,4.58,2a.5.5,0,0,1,.36.58.5.5,0,0,1-.54.4s-3.08-.26-3.35,1.29a.64.64,0,0,0,.15.57,4.72,4.72,0,0,0,2.83.9,3.33,3.33,0,0,1,.56,0,.51.51,0,0,1,.43.54.5.5,0,0,1-.5.46,2.09,2.09,0,0,1-.47,0,2.47,2.47,0,0,0-2.27,1.6.2.2,0,0,0,0,.23c.61.89,4.83,1.24,7.65,1.2a.45.45,0,0,1,.31.1s3.66,2.74,11.88,6.11,30.21,6.44,40.64,3.7a5,5,0,0,0,3.68-3.23c3.92-10.54-16.56-40.49-16.77-40.8a.5.5,0,0,1,.82-.56c.86,1.25,21,30.69,16.89,41.71a6,6,0,0,1-4.36,3.84A44.82,44.82,0,0,1,303.83,135.66Z" fill="#231f20"/><path d="M256.5,264.22s-4.89,3.81-8.8.68c0,0-12.86-1.15-14.33,7.65h22.76Z" fill="#231f20"/><path d="M256.13,273.05H233.37a.49.49,0,0,1-.38-.18.52.52,0,0,1-.11-.4c1.53-9.15,14.74-8.07,14.87-8.06a.54.54,0,0,1,.27.11c3.55,2.84,8-.55,8.17-.69a.5.5,0,0,1,.54-.05.52.52,0,0,1,.27.46l-.37,8.33A.5.5,0,0,1,256.13,273.05Zm-22.15-1h21.68l.3-6.88c-1.63,1-5.3,2.61-8.44.22C246.17,265.31,235.71,264.9,234,272.05Z" fill="#231f20"/><rect x="103.53" y="90.09" width="4.3" height="155.75" fill="#fff"/><path d="M107.83,246.34h-4.3a.5.5,0,0,1-.5-.5V90.09a.5.5,0,0,1,.5-.5h4.3a.51.51,0,0,1,.5.5V245.84A.5.5,0,0,1,107.83,246.34Zm-3.8-1h3.3V90.59H104Z" fill="#d1d3d4"/><polygon points="124.92 144.27 81.7 144.27 81.7 124.99 124.92 124.99 131.84 134.63 124.92 144.27" fill="#fff"/><path d="M124.92,144.77H81.7a.5.5,0,0,1-.5-.5V125a.5.5,0,0,1,.5-.5h43.22a.49.49,0,0,1,.4.21l6.93,9.64a.51.51,0,0,1,0,.58l-6.93,9.64A.46.46,0,0,1,124.92,144.77Zm-42.72-1h42.46l6.56-9.14-6.56-9.14H82.2Z" fill="#d1d3d4"/><polygon points="82.14 117.63 125.36 117.63 125.36 98.35 82.14 98.35 75.22 107.99 82.14 117.63" fill="#fff"/><path d="M125.36,118.13H82.14a.52.52,0,0,1-.41-.21l-6.92-9.64a.53.53,0,0,1,0-.59l6.92-9.64a.51.51,0,0,1,.41-.2h43.22a.5.5,0,0,1,.5.5v19.28A.51.51,0,0,1,125.36,118.13Zm-43-1h42.46V98.85H82.4L75.83,108Z" fill="#d1d3d4"/></g></svg>